<svg t="1696817762757" class="icon" viewBox="0 0 1024 1024" version="1.1" xmlns="http://www.w3.org/2000/svg" p-id="4409" width="200" height="200"><path d="M471.296 245.333333l185.557333 213.333334h57.813334a138.666667 138.666667 0 0 1 0 277.333333H341.333333a32 32 0 0 1-29.738666-20.224L177.92 553.685333A32 32 0 0 1 170.666667 533.333333v-85.333333a32 32 0 0 1 14.250666-26.624l32-21.333333a32 32 0 0 1 34.218667-0.853334l99.072 59.477334h51.029333L343.68 311.594667a2.688 2.688 0 0 1 1.28-3.328l123.136-63.573334a2.688 2.688 0 0 1 3.2 0.64z m-16.64 78.293334l-26.325333 13.610666 48.298666 139.093334a32 32 0 0 1-11.605333 41.429333l-2.688 1.536a31.829333 31.829333 0 0 1-17.024 3.242667l-2.346667 0.128H341.333333a31.872 31.872 0 0 1-16.469333-4.565334l-89.301333-53.589333-0.853334 0.597333-0.042666 56.746667 120.917333 146.56a32 32 0 0 1 5.12 3.157333l0.512 0.426667h353.450667a74.666667 74.666667 0 0 0 74.538666-70.570667L789.333333 597.333333a74.666667 74.666667 0 0 0-74.666666-74.666666H640a32 32 0 0 1-29.610667-19.882667l-155.733333-179.157333z" p-id="4410"></path></svg>