<svg t="1696817546982" class="icon" viewBox="0 0 1024 1024" version="1.1" xmlns="http://www.w3.org/2000/svg" p-id="4127" width="200" height="200"><path d="M775.850667 210.389333a31.189333 31.189333 0 0 1 17.066666 1.152c0.256 0.170667 0.512 0.256 0.853334 0.384 1.109333 0.384 2.176 0.853333 3.242666 1.408 0.170667 0.170667 0.426667 0.256 0.597334 0.384 1.109333 0.597333 2.133333 1.28 3.157333 1.962667l0.768 0.554667c2.304 1.792 4.394667 3.84 6.144 6.144l-2.816-3.242667a32.170667 32.170667 0 0 1 5.546667 7.381333l0.341333 0.725334c3.797333 7.253333 4.821333 16.128 1.706667 25.088l0.981333-3.498667a32 32 0 0 1-0.512 1.92l-0.512 1.578667-189.141333 540.458666a32 32 0 0 1-59.434667 2.432l-103.082667-231.936-231.978666-103.125333c-25.514667-11.349333-25.002667-47.189333-0.426667-58.282667l2.858667-1.152L771.669333 211.626667a34.389333 34.389333 0 0 1 3.882667-1.109334z m-70.144 153.173334l-182.613334 182.528 66.432 149.333333L705.706667 363.52z m-45.226667-45.312L328.533333 434.474667l149.333334 66.346666 182.613333-182.570666z"  p-id="4128"></path></svg>